<?xml version="1.0" encoding="UTF-8"?>
<!DOCTYPE svg PUBLIC "-//W3C//DTD SVG 1.1//EN" "http://www.w3.org/Graphics/SVG/1.1/DTD/svg11.dtd">
<svg xmlns="http://www.w3.org/2000/svg" version="1.1" width="2560px" height="866px" style="shape-rendering:geometricPrecision; text-rendering:geometricPrecision; image-rendering:optimizeQuality; fill-rule:evenodd; clip-rule:evenodd" xmlns:xlink="http://www.w3.org/1999/xlink">
<g><path style="opacity:0.994" fill="#4285f4" d="M 312.5,3.5 C 406.623,-1.36331 487.29,28.6367 554.5,93.5C 533.833,114.833 512.833,135.833 491.5,156.5C 433.758,103.65 366.091,83.8163 288.5,97C 194.349,118.502 133.849,175.668 107,268.5C 87.0993,359.436 109.933,437.603 175.5,503C 240.688,558.209 315.021,575.543 398.5,555C 447.911,541.243 487.078,513.409 516,471.5C 530.54,446.044 539.374,418.711 542.5,389.5C 472.167,389.5 401.833,389.5 331.5,389.5C 331.5,359.833 331.5,330.167 331.5,300.5C 431.169,300.167 530.836,300.5 630.5,301.5C 640.37,364.221 633.537,425.221 610,484.5C 580.192,548.975 533.025,596.141 468.5,626C 406.306,651.54 341.973,658.874 275.5,648C 170.083,627.081 91.2501,569.915 39,476.5C -2.2065,394.815 -8.53983,310.482 20,223.5C 61.3973,115.77 137.564,45.937 248.5,14C 269.713,8.85296 291.046,5.35296 312.5,3.5 Z"/></g>
<g><path style="opacity:0.993" fill="#33a752" d="M 2027.5,27.5 C 2057.5,27.5 2087.5,27.5 2117.5,27.5C 2117.5,231.833 2117.5,436.167 2117.5,640.5C 2087.5,640.5 2057.5,640.5 2027.5,640.5C 2027.5,436.167 2027.5,231.833 2027.5,27.5 Z"/></g>
<g><path style="opacity:0.992" fill="#ea4334" d="M 862.5,234.5 C 935.02,230.53 995.187,255.53 1043,309.5C 1087.16,368.121 1099.83,433.121 1081,504.5C 1055.44,583.057 1002.27,631.224 921.5,649C 855.448,660.653 796.115,645.987 743.5,605C 691.011,558.928 666.511,500.761 670,430.5C 675.529,356.559 709.696,300.392 772.5,262C 800.682,246.436 830.682,237.269 862.5,234.5 Z M 870.5,317.5 C 930.974,317.812 971.14,346.479 991,403.5C 1002.35,444.733 996.681,483.4 974,519.5C 941.746,561.863 899.58,577.03 847.5,565C 797.421,546.568 769.255,510.735 763,457.5C 758.79,411.776 773.623,373.61 807.5,343C 826.113,328.52 847.113,320.02 870.5,317.5 Z"/></g>
<g><path style="opacity:0.993" fill="#fbbc04" d="M 1314.5,234.5 C 1386.51,230.443 1446.34,255.11 1494,308.5C 1535.85,362.895 1549.85,423.895 1536,491.5C 1513.58,577.254 1459.08,629.754 1372.5,649C 1287.64,662.783 1217.81,636.949 1163,571.5C 1122.53,513.465 1111.53,450.132 1130,381.5C 1154.03,308.799 1202.87,261.966 1276.5,241C 1289.18,238.054 1301.85,235.887 1314.5,234.5 Z M 1322.5,317.5 C 1384.77,318.21 1425.27,348.21 1444,407.5C 1454.42,449.971 1447.09,488.971 1422,524.5C 1386.55,565.991 1342.71,578.491 1290.5,562C 1246.56,542.353 1221.4,508.52 1215,460.5C 1210.14,416.735 1222.98,379.235 1253.5,348C 1273.32,330.563 1296.32,320.397 1322.5,317.5 Z"/></g>
<g><path style="opacity:0.993" fill="#4285f4" d="M 1758.5,234.5 C 1802.22,231.252 1840.88,243.418 1874.5,271C 1878.18,275.198 1882.18,278.698 1886.5,281.5C 1886.5,270.167 1886.5,258.833 1886.5,247.5C 1915.83,247.5 1945.17,247.5 1974.5,247.5C 1974.96,382.176 1974.46,516.843 1973,651.5C 1970.43,697.549 1955.43,738.882 1928,775.5C 1893.4,814.379 1849.9,835.545 1797.5,839C 1710.09,845.052 1643.93,810.885 1599,736.5C 1595.56,729.955 1592.39,723.288 1589.5,716.5C 1616.05,704.98 1642.72,693.647 1669.5,682.5C 1702.06,747.936 1753.39,769.769 1823.5,748C 1853.85,734.158 1873.02,710.992 1881,678.5C 1885.55,654.394 1887.38,630.061 1886.5,605.5C 1885.45,605.351 1884.45,605.517 1883.5,606C 1858.04,633.06 1826.71,648.393 1789.5,652C 1708.72,654.028 1646.55,621.195 1603,553.5C 1564.37,483.545 1563.04,412.879 1599,341.5C 1634.6,279.776 1687.76,244.109 1758.5,234.5 Z M 1772.5,317.5 C 1824.45,317.391 1860.95,341.057 1882,388.5C 1900.22,437.693 1894.89,484.027 1866,527.5C 1836.49,563.227 1798.99,576.06 1753.5,566C 1709.99,551.822 1682.16,522.656 1670,478.5C 1658.76,427.95 1670.92,384.116 1706.5,347C 1725.5,330.331 1747.5,320.497 1772.5,317.5 Z"/></g>
<g><path style="opacity:0.991" fill="#ea4334" d="M 2335.5,234.5 C 2409.42,230.874 2466.92,259.541 2508,320.5C 2521.72,342.771 2532.89,366.271 2541.5,391C 2448.52,429.821 2355.52,468.654 2262.5,507.5C 2289.84,557.666 2331.84,577.499 2388.5,567C 2421.59,558.73 2447.26,540.23 2465.5,511.5C 2489.67,527.419 2513.67,543.586 2537.5,560C 2482.43,635.005 2408.76,664.339 2316.5,648C 2245.49,631.329 2196.33,589.163 2169,521.5C 2154.09,478.274 2151.42,434.274 2161,389.5C 2184.95,299.034 2243.12,247.368 2335.5,234.5 Z M 2354.5,315.5 C 2380.04,315.84 2402.2,324.507 2421,341.5C 2425.45,346.905 2429.29,352.739 2432.5,359C 2371.03,385.071 2309.36,410.571 2247.5,435.5C 2247.43,384.45 2270.09,347.616 2315.5,325C 2328.14,319.755 2341.14,316.588 2354.5,315.5 Z"/></g>
</svg>
