<?xml version="1.0" encoding="UTF-8"?>
<!DOCTYPE svg PUBLIC "-//W3C//DTD SVG 1.1//EN" "http://www.w3.org/Graphics/SVG/1.1/DTD/svg11.dtd">
<svg xmlns="http://www.w3.org/2000/svg" version="1.1" width="1280px" height="425px" style="shape-rendering:geometricPrecision; text-rendering:geometricPrecision; image-rendering:optimizeQuality; fill-rule:evenodd; clip-rule:evenodd" xmlns:xlink="http://www.w3.org/1999/xlink">
<g><path style="opacity:0.997" fill="#044ea2" d="M 892.5,-0.5 C 928.167,-0.5 963.833,-0.5 999.5,-0.5C 1050.86,1.46159 1101.86,7.62826 1152.5,18C 1179.56,24.0191 1205.56,33.0191 1230.5,45C 1248.08,53.5818 1262.25,66.0818 1273,82.5C 1275.79,88.054 1277.96,93.7206 1279.5,99.5C 1279.5,106.5 1279.5,113.5 1279.5,120.5C 1274.6,138.633 1265.77,154.633 1253,168.5C 1226.96,194.888 1197.79,217.055 1165.5,235C 1142.37,247.899 1118.7,259.732 1094.5,270.5C 1102.08,262.787 1105.74,253.454 1105.5,242.5C 1106.5,229.344 1106.83,216.01 1106.5,202.5C 1090.66,202.17 1074.99,202.504 1059.5,203.5C 1059.5,209.833 1059.5,216.167 1059.5,222.5C 1063.83,222.5 1068.17,222.5 1072.5,222.5C 1072.92,231.915 1072.42,241.248 1071,250.5C 1064.63,257.108 1057.47,258.108 1049.5,253.5C 1048.14,251.972 1046.97,250.305 1046,248.5C 1045.33,223.5 1045.33,198.5 1046,173.5C 1048.26,167.947 1052.43,165.28 1058.5,165.5C 1065.28,165.121 1069.78,168.121 1072,174.5C 1072.5,178.821 1072.67,183.154 1072.5,187.5C 1083.5,187.5 1094.5,187.5 1105.5,187.5C 1108.79,163.56 1098.79,148.727 1075.5,143C 1057.84,139.125 1041.18,141.459 1025.5,150C 1019.3,155.2 1015.13,161.7 1013,169.5C 1011.04,197.156 1011.04,224.822 1013,252.5C 1016.91,266.073 1025.74,274.573 1039.5,278C 1051.82,279.783 1064.15,279.95 1076.5,278.5C 1005.59,308.972 932.587,333.805 857.5,353C 703.205,393.398 546.539,417.231 387.5,424.5C 351.5,424.5 315.5,424.5 279.5,424.5C 240.46,422.632 201.46,418.798 162.5,413C 122.775,407.313 84.775,395.979 48.5,379C 30.9157,370.418 16.749,357.918 6,341.5C 3.21014,335.946 1.04347,330.279 -0.5,324.5C -0.5,317.5 -0.5,310.5 -0.5,303.5C 3.13662,290.223 8.96995,277.889 17,266.5C 38.0725,241.237 62.5725,220.07 90.5,203C 123.378,182.56 157.711,164.726 193.5,149.5C 179.564,162.937 176.73,178.604 185,196.5C 189.167,202 194,206.833 199.5,211C 210.833,217.667 222.167,224.333 233.5,231C 243.277,237.636 244.943,245.802 238.5,255.5C 233.55,258.333 228.216,259.166 222.5,258C 219.244,256.413 217.077,253.913 216,250.5C 215.501,245.177 215.334,239.844 215.5,234.5C 203.678,233.505 191.678,233.172 179.5,233.5C 179.178,239.358 179.511,245.025 180.5,250.5C 184.21,269.037 195.543,279.537 214.5,282C 230.592,284.24 245.925,281.907 260.5,275C 267.553,270.738 272.053,264.571 274,256.5C 275.877,246.819 275.877,237.152 274,227.5C 271.508,221.353 267.674,216.186 262.5,212C 249.994,203.577 236.994,195.911 223.5,189C 214.503,183.851 212.336,176.684 217,167.5C 222.688,162.686 228.855,162.186 235.5,166C 237.041,167.579 238.208,169.413 239,171.5C 239.499,175.486 239.666,179.486 239.5,183.5C 250.5,183.5 261.5,183.5 272.5,183.5C 275.217,159.737 264.884,145.904 241.5,142C 232.506,141.5 223.506,141.334 214.5,141.5C 213.833,141.5 213.167,141.5 212.5,141.5C 281.647,112.617 352.647,88.784 425.5,70C 578.862,30.2151 734.528,6.71514 892.5,-0.5 Z"/></g>
<g><path style="opacity:0.999" fill="#fdfdfe" d="M 214.5,141.5 C 223.506,141.334 232.506,141.5 241.5,142C 264.884,145.904 275.217,159.737 272.5,183.5C 261.5,183.5 250.5,183.5 239.5,183.5C 239.666,179.486 239.499,175.486 239,171.5C 238.208,169.413 237.041,167.579 235.5,166C 228.855,162.186 222.688,162.686 217,167.5C 212.336,176.684 214.503,183.851 223.5,189C 236.994,195.911 249.994,203.577 262.5,212C 267.674,216.186 271.508,221.353 274,227.5C 275.877,237.152 275.877,246.819 274,256.5C 272.053,264.571 267.553,270.738 260.5,275C 245.925,281.907 230.592,284.24 214.5,282C 195.543,279.537 184.21,269.037 180.5,250.5C 180.5,245.167 180.5,239.833 180.5,234.5C 192.167,234.5 203.833,234.5 215.5,234.5C 215.334,239.844 215.501,245.177 216,250.5C 217.077,253.913 219.244,256.413 222.5,258C 228.216,259.166 233.55,258.333 238.5,255.5C 244.943,245.802 243.277,237.636 233.5,231C 222.167,224.333 210.833,217.667 199.5,211C 194,206.833 189.167,202 185,196.5C 176.73,178.604 179.564,162.937 193.5,149.5C 197.574,146.13 202.241,143.796 207.5,142.5C 207.735,143.097 208.235,143.43 209,143.5C 211.03,143.046 212.863,142.38 214.5,141.5 Z"/></g>
<g><path style="opacity:0.999" fill="#fbfcfd" d="M 1059.5,203.5 C 1074.83,203.5 1090.17,203.5 1105.5,203.5C 1105.5,216.5 1105.5,229.5 1105.5,242.5C 1105.74,253.454 1102.08,262.787 1094.5,270.5C 1089.3,274.765 1083.3,277.431 1076.5,278.5C 1064.15,279.95 1051.82,279.783 1039.5,278C 1025.74,274.573 1016.91,266.073 1013,252.5C 1011.04,224.822 1011.04,197.156 1013,169.5C 1015.13,161.7 1019.3,155.2 1025.5,150C 1041.18,141.459 1057.84,139.125 1075.5,143C 1098.79,148.727 1108.79,163.56 1105.5,187.5C 1094.5,187.5 1083.5,187.5 1072.5,187.5C 1072.67,183.154 1072.5,178.821 1072,174.5C 1069.78,168.121 1065.28,165.121 1058.5,165.5C 1052.43,165.28 1048.26,167.947 1046,173.5C 1045.33,198.5 1045.33,223.5 1046,248.5C 1046.97,250.305 1048.14,251.972 1049.5,253.5C 1057.47,258.108 1064.63,257.108 1071,250.5C 1072.42,241.248 1072.92,231.915 1072.5,222.5C 1068.17,222.5 1063.83,222.5 1059.5,222.5C 1059.5,216.167 1059.5,209.833 1059.5,203.5 Z"/></g>
<g><path style="opacity:0.976" fill="#91b3ce" d="M 212.5,141.5 C 213.167,141.5 213.833,141.5 214.5,141.5C 212.863,142.38 211.03,143.046 209,143.5C 208.235,143.43 207.735,143.097 207.5,142.5C 209.117,141.962 210.784,141.629 212.5,141.5 Z"/></g>
<g><path style="opacity:1" fill="#fcfdfe" d="M 611.5,249.5 C 611.5,244.5 611.5,239.5 611.5,234.5C 622.833,234.5 634.167,234.5 645.5,234.5C 645.179,239.695 645.513,244.695 646.5,249.5C 650.265,258.038 656.598,260.538 665.5,257C 671.373,253.061 673.54,247.561 672,240.5C 670.439,237.217 668.273,234.383 665.5,232C 652.833,224.333 640.167,216.667 627.5,209C 612.946,198.27 608.113,184.103 613,166.5C 619.147,151.659 630.313,143.492 646.5,142C 662.443,139.823 677.443,142.49 691.5,150C 701.079,159.123 704.746,170.29 702.5,183.5C 691.5,183.5 680.5,183.5 669.5,183.5C 671.869,167.196 665.202,161.363 649.5,166C 643.456,174.207 644.456,181.54 652.5,188C 664.5,195 676.5,202 688.5,209C 702.65,218.476 708.15,231.643 705,248.5C 703.613,265.764 694.447,276.264 677.5,280C 666.21,281.522 654.877,281.856 643.5,281C 624.956,278.289 614.29,267.789 611.5,249.5 Z"/></g>
<g><path style="opacity:1" fill="#fcfdfe" d="M 321.5,145.5 C 341.409,145.174 361.243,145.507 381,146.5C 389.253,190.111 397.087,233.778 404.5,277.5C 392.833,277.5 381.167,277.5 369.5,277.5C 363.821,237.399 357.655,197.399 351,157.5C 344.637,197.479 338.47,237.479 332.5,277.5C 320.833,277.5 309.167,277.5 297.5,277.5C 304.855,233.366 312.855,189.366 321.5,145.5 Z"/></g>
<g><path style="opacity:1" fill="#fdfdfe" d="M 466.5,160.5 C 466.631,159.624 466.298,158.957 465.5,158.5C 464.5,183.158 464.167,207.824 464.5,232.5C 464.5,247.5 464.5,262.5 464.5,277.5C 453.5,277.5 442.5,277.5 431.5,277.5C 432.353,233.503 433.02,189.503 433.5,145.5C 451.833,145.5 470.167,145.5 488.5,145.5C 493.754,179.195 499.254,212.862 505,246.5C 510.497,213.193 515.83,179.86 521,146.5C 539.09,145.508 557.257,145.174 575.5,145.5C 576.343,189.504 577.343,233.504 578.5,277.5C 567.5,277.5 556.5,277.5 545.5,277.5C 545.24,237.831 544.74,198.164 544,158.5C 536.51,197.463 529.176,236.463 522,275.5C 510.754,277.465 499.254,278.132 487.5,277.5C 480.965,238.42 473.965,199.42 466.5,160.5 Z"/></g>
<g><path style="opacity:1" fill="#fefefe" d="M 795.5,246.5 C 796.498,213.004 796.832,179.337 796.5,145.5C 807.167,145.5 817.833,145.5 828.5,145.5C 828.5,180.167 828.5,214.833 828.5,249.5C 826.114,267.053 816.114,277.22 798.5,280C 784.978,282.551 771.644,281.885 758.5,278C 747.055,273.623 739.888,265.456 737,253.5C 736.5,217.502 736.333,181.502 736.5,145.5C 747.5,145.5 758.5,145.5 769.5,145.5C 769.333,179.835 769.5,214.168 770,248.5C 774.796,257.906 781.962,260.073 791.5,255C 793.782,252.603 795.116,249.769 795.5,246.5 Z"/></g>
<g><path style="opacity:1" fill="#afc5e1" d="M 828.5,249.5 C 828.5,214.833 828.5,180.167 828.5,145.5C 817.833,145.5 807.167,145.5 796.5,145.5C 796.832,179.337 796.498,213.004 795.5,246.5C 795.5,212.5 795.5,178.5 795.5,144.5C 806.833,144.5 818.167,144.5 829.5,144.5C 829.832,179.671 829.498,214.671 828.5,249.5 Z"/></g>
<g><path style="opacity:1" fill="#fdfefe" d="M 866.5,145.5 C 883.077,145.175 899.577,145.508 916,146.5C 925.692,180.602 935.692,214.602 946,248.5C 946.187,226.834 946.02,205.168 945.5,183.5C 945.5,170.833 945.5,158.167 945.5,145.5C 956.167,145.5 966.833,145.5 977.5,145.5C 977.5,188.833 977.5,232.167 977.5,275.5C 961.422,275.817 945.422,275.484 929.5,274.5C 919.481,239.759 909.147,205.092 898.5,170.5C 898.217,169.711 897.717,169.044 897,168.5C 896.179,175.346 896.346,182.013 897.5,188.5C 897.536,217.504 897.869,246.504 898.5,275.5C 887.833,275.5 877.167,275.5 866.5,275.5C 866.5,232.167 866.5,188.833 866.5,145.5 Z"/></g>
<g><path style="opacity:1" fill="#80a4cf" d="M 977.5,145.5 C 966.833,145.5 956.167,145.5 945.5,145.5C 945.5,158.167 945.5,170.833 945.5,183.5C 944.505,170.677 944.171,157.677 944.5,144.5C 955.679,144.172 966.679,144.505 977.5,145.5 Z"/></g>
<g><path style="opacity:1" fill="#7aa0cd" d="M 466.5,160.5 C 465.833,184.5 465.167,208.5 464.5,232.5C 464.167,207.824 464.5,183.158 465.5,158.5C 466.298,158.957 466.631,159.624 466.5,160.5 Z"/></g>
<g><path style="opacity:1" fill="#9bb8da" d="M 898.5,170.5 C 897.51,176.31 897.177,182.31 897.5,188.5C 896.346,182.013 896.179,175.346 897,168.5C 897.717,169.044 898.217,169.711 898.5,170.5 Z"/></g>
<g><path style="opacity:1" fill="#7aa1ce" d="M 1059.5,203.5 C 1074.99,202.504 1090.66,202.17 1106.5,202.5C 1106.83,216.01 1106.5,229.344 1105.5,242.5C 1105.5,229.5 1105.5,216.5 1105.5,203.5C 1090.17,203.5 1074.83,203.5 1059.5,203.5 Z"/></g>
<g><path style="opacity:1" fill="#80a5cf" d="M 215.5,234.5 C 203.833,234.5 192.167,234.5 180.5,234.5C 180.5,239.833 180.5,245.167 180.5,250.5C 179.511,245.025 179.178,239.358 179.5,233.5C 191.678,233.172 203.678,233.505 215.5,234.5 Z"/></g>
<g><path style="opacity:1" fill="#a2bddc" d="M 646.5,249.5 C 645.513,244.695 645.179,239.695 645.5,234.5C 634.167,234.5 622.833,234.5 611.5,234.5C 611.5,239.5 611.5,244.5 611.5,249.5C 610.512,244.36 610.179,239.026 610.5,233.5C 622.5,233.5 634.5,233.5 646.5,233.5C 646.5,238.833 646.5,244.167 646.5,249.5 Z"/></g>
<g><path style="opacity:1" fill="#80a4d0" d="M 866.5,145.5 C 866.5,188.833 866.5,232.167 866.5,275.5C 877.167,275.5 887.833,275.5 898.5,275.5C 887.679,276.495 876.679,276.828 865.5,276.5C 865.168,232.663 865.501,188.997 866.5,145.5 Z"/></g>
<g><path style="opacity:1" fill="#97b5d8" d="M 929.5,274.5 C 945.422,275.484 961.422,275.817 977.5,275.5C 969.674,276.166 961.674,276.5 953.5,276.5C 945.138,276.498 937.138,275.831 929.5,274.5 Z"/></g>
</svg>
